<svg xmlns="http://www.w3.org/2000/svg" xmlns:xlink="http://www.w3.org/1999/xlink" id="e0044lx9zeyybd1" shape-rendering="geometricPrecision" text-rendering="geometricPrecision" viewBox="0 0 1438 570"><style>@keyframes e0044lx9zeyybd6_tr__tr{0%{transform:translate(723.091459px,1080.990106px) rotate(40deg)}}#e0044lx9zeyybd6_tr{animation:e0044lx9zeyybd6_tr__tr 15000ms linear infinite normal forwards}</style><rect id="e0044lx9zeyybd2" width="1438" height="600" fill="#161E2D" stroke="none" stroke-width="1" display="none" rx="0" ry="0" transform="matrix(1 0 0 1 1.38943457000039 -0.84088233000028)"/><g id="e0044lx9zeyybd3" transform="matrix(1 0 0 1 -1 136.99010618000057)"><g id="e0044lx9zeyybd4" transform="matrix(1 0 0 1 0 -54)"><path id="e0044lx9zeyybd5" fill="none" fill-rule="evenodd" stroke="#646972" stroke-dasharray="7 7" stroke-linecap="round" stroke-linejoin="round" stroke-width="2" d="M1673,1008C1673,481.672633,1246.327370,55,720,55C193.672633,55,-233,481.672633,-233,1008"/></g></g><g id="e0044lx9zeyybd6_tr" transform="translate(723.091459,1080.990106) rotate(40)"><g id="e0044lx9zeyybd6" transform="translate(686.785610,-751.818116)"><g id="e0044lx9zeyybd7" transform="matrix(1 0 0 1 -1315 -160)"><g id="e0044lx9zeyybd8" transform="matrix(1 0 0 1 1316 161)"><g id="e0044lx9zeyybd9" transform="matrix(1 0 0 1 0.75212300000000 0.73756600000000)"><g id="e0044lx9zeyybd10" transform="matrix(1 0 0 1 12.11110000000000 15.13890000000000)"><path id="e0044lx9zeyybd11" fill="#161E2D" fill-rule="evenodd" stroke="#FFF" stroke-linejoin="round" stroke-width="2" d="M30.202083,68.427778L13.170833,51.396528C12.565278,50.790972,12.565278,49.882639,13.170833,49.277083L52.531944,9.915972C53.137500,9.310417,54.045833,9.310417,54.651389,9.915972L71.682639,26.947222C72.288194,27.552778,72.288194,28.461111,71.682639,29.066667L32.321528,68.427778C31.791667,69.033333,30.807639,69.033333,30.202083,68.427778Z"/><path id="e0044lx9zeyybd12" fill="none" fill-rule="evenodd" stroke="#FFF" stroke-linejoin="round" stroke-width="2" d="M78.040972,11.884028L80.538889,14.381944C81.447222,15.290278,81.447222,16.728472,80.538889,17.561111L78.343750,19.756250C77.435417,20.664583,75.997222,20.664583,75.164583,19.756250L61.842361,6.434028C60.934028,5.525694,60.934028,4.087500,61.842361,3.254861L64.037500,1.059722C64.945833,0.151389,66.384028,0.151389,67.216667,1.059722L69.714583,3.557639"/><g id="e0044lx9zeyybd13" transform="matrix(1 0 0 1 60.55560000000000 9.84028000000000)"><line id="e0044lx9zeyybd14" x1="5.299" x2=".076" y1=".454" y2="5.601" fill="none" fill-rule="evenodd" stroke="#FFF" stroke-linejoin="round" stroke-width="2"/><line id="e0044lx9zeyybd15" x1="10.824" x2="5.601" y1="5.904" y2="11.127" fill="none" fill-rule="evenodd" stroke="#FFF" stroke-linejoin="round" stroke-width="2"/></g><g id="e0044lx9zeyybd16" transform="matrix(1 0 0 1 13.62500000000000 56.77080000000000)"><line id="e0044lx9zeyybd17" x1="5.45" x2=".227" y1=".303" y2="5.45" fill="none" fill-rule="evenodd" stroke="#FFF" stroke-linejoin="round" stroke-width="2"/><line id="e0044lx9zeyybd18" x1="10.976" x2="5.753" y1="5.753" y2="10.976" fill="none" fill-rule="evenodd" stroke="#FFF" stroke-linejoin="round" stroke-width="2"/></g><line id="e0044lx9zeyybd19" x1="16.274" x2="6.813" y1="65.324" y2="74.862" fill="none" fill-rule="evenodd" stroke="#FFF" stroke-linejoin="round" stroke-width="2"/><line id="e0044lx9zeyybd20" x1="72.44" x2="75.316" y1="6.358" y2="9.159" fill="none" fill-rule="evenodd" stroke="#FFF" stroke-linejoin="round" stroke-width="2"/><line id="e0044lx9zeyybd21" x1="49.504" x2="21.876" y1="24.374" y2="52.078" fill="none" fill-rule="evenodd" stroke="#527FFF" stroke-linejoin="round" stroke-width="2"/><line id="e0044lx9zeyybd22" x1="52.381" x2="55.181" y1="21.573" y2="18.697" fill="none" fill-rule="evenodd" stroke="#527FFF" stroke-linejoin="round" stroke-width="2"/><path id="e0044lx9zeyybd23" fill="none" fill-rule="evenodd" stroke="#FFF" stroke-linejoin="round" stroke-width="2" d="M7.796528,76.678472L21.194444,77.056944L21.194444,77.056944C24.752083,73.499306,21.572917,70.774306,16.198611,65.400000C10.824306,60.025694,8.250694,56.695139,4.541667,60.404167L4.920139,73.877778"/><circle id="e0044lx9zeyybd24" r="4.012" fill="none" fill-rule="evenodd" stroke="#FFF" stroke-linejoin="round" stroke-width="2" transform="matrix(1 0 0 1 4.23889000000000 78.19240000000001)"/></g><g id="e0044lx9zeyybd25" transform="matrix(1 0 0 1 0 18.92360000000000)"><path id="e0044lx9zeyybd26" fill="none" fill-rule="evenodd" stroke="#FFF" stroke-linejoin="round" stroke-width="2" d="M78.116667,89.470833L55.484028,66.838194C54.878472,66.232639,54.878472,65.324306,55.484028,64.718750L64.415972,55.786806C65.021528,55.181250,65.929861,55.181250,66.535417,55.786806L89.168056,78.419444C89.773611,79.025000,89.773611,79.933333,89.168056,80.538889L80.236111,89.470833C79.706250,90.076389,78.722222,90.076389,78.116667,89.470833Z"/><path id="e0044lx9zeyybd27" fill="none" fill-rule="evenodd" stroke="#FFF" stroke-linejoin="round" stroke-width="2" d="M23.086806,34.440972L0.454167,11.808333C-0.151389,11.202778,-0.151389,10.294444,0.454167,9.688889L9.386111,0.756944C9.991667,0.151389,10.900000,0.151389,11.505556,0.756944L34.138194,23.389583C34.743750,23.995139,34.743750,24.903472,34.138194,25.509028L25.206250,34.440972C24.600694,35.046528,23.692361,35.046528,23.086806,34.440972Z"/><line id="e0044lx9zeyybd28" x1="54.5" x2="59.95" y1="54.803" y2="60.253" fill="none" fill-rule="evenodd" stroke="#FFF" stroke-linejoin="round" stroke-width="2"/><line id="e0044lx9zeyybd29" x1="29.142" x2="35.274" y1="29.445" y2="35.576" fill="none" fill-rule="evenodd" stroke="#FFF" stroke-linejoin="round" stroke-width="2"/><line id="e0044lx9zeyybd30" x1="23.844" x2="17.788" y1="22.103" y2="28.158" fill="none" fill-rule="evenodd" stroke="#FFF" stroke-linejoin="round" stroke-width="2"/><line id="e0044lx9zeyybd31" x1="18.318" x2="12.338" y1="16.653" y2="22.633" fill="none" fill-rule="evenodd" stroke="#FFF" stroke-linejoin="round" stroke-width="2"/><line id="e0044lx9zeyybd32" x1="12.868" x2="6.813" y1="11.127" y2="17.183" fill="none" fill-rule="evenodd" stroke="#FFF" stroke-linejoin="round" stroke-width="2"/><line id="e0044lx9zeyybd33" x1="78.949" x2="72.894" y1="77.057" y2="83.112" fill="none" fill-rule="evenodd" stroke="#FFF" stroke-linejoin="round" stroke-width="2"/><line id="e0044lx9zeyybd34" x1="73.499" x2="67.444" y1="71.607" y2="77.587" fill="none" fill-rule="evenodd" stroke="#FFF" stroke-linejoin="round" stroke-width="2"/><line id="e0044lx9zeyybd35" x1="67.974" x2="61.994" y1="66.081" y2="72.137" fill="none" fill-rule="evenodd" stroke="#FFF" stroke-linejoin="round" stroke-width="2"/></g><g id="e0044lx9zeyybd36" transform="matrix(1 0 0 1 18.92360000000000 0)"><path id="e0044lx9zeyybd37" fill="none" fill-rule="evenodd" stroke="#FFF" stroke-linejoin="round" stroke-width="2" d="M78.495139,89.168056L55.862500,66.535417C55.256944,65.929861,55.256944,65.021528,55.862500,64.415972L64.794444,55.484028C65.400000,54.878472,66.308333,54.878472,66.913889,55.484028L89.546528,78.116667C90.152083,78.722222,90.152083,79.630556,89.546528,80.236111L80.614583,89.168056C80.009028,89.773611,79.100694,89.773611,78.495139,89.168056Z"/><path id="e0044lx9zeyybd38" fill="none" fill-rule="evenodd" stroke="#FFF" stroke-linejoin="round" stroke-width="2" d="M23.389583,34.062500L0.756944,11.505556C0.151389,10.900000,0.151389,9.991667,0.756944,9.386111L9.688889,0.454167C10.294444,-0.151389,11.202778,-0.151389,11.808333,0.454167L34.440972,23.086806C35.046528,23.692361,35.046528,24.600694,34.440972,25.206250L25.584722,34.062500C24.979167,34.668056,23.995139,34.668056,23.389583,34.062500Z"/><line id="e0044lx9zeyybd39" x1="54.878" x2="60.328" y1="54.5" y2="59.95" fill="none" fill-rule="evenodd" stroke="#FFF" stroke-linejoin="round" stroke-width="2"/><line id="e0044lx9zeyybd40" x1="29.445" x2="35.728" y1="29.067" y2="35.349" fill="none" fill-rule="evenodd" stroke="#FFF" stroke-linejoin="round" stroke-width="2"/><line id="e0044lx9zeyybd41" x1="24.601" x2="17.712" y1="21.422" y2="28.31" fill="none" fill-rule="evenodd" stroke="#FFF" stroke-linejoin="round" stroke-width="2"/><line id="e0044lx9zeyybd42" x1="19.151" x2="12.111" y1="15.972" y2="22.935" fill="none" fill-rule="evenodd" stroke="#FFF" stroke-linejoin="round" stroke-width="2"/><line id="e0044lx9zeyybd43" x1="13.625" x2="6.737" y1="10.446" y2="17.41" fill="none" fill-rule="evenodd" stroke="#FFF" stroke-linejoin="round" stroke-width="2"/><line id="e0044lx9zeyybd44" x1="79.555" x2="72.591" y1="76.376" y2="83.34" fill="none" fill-rule="evenodd" stroke="#FFF" stroke-linejoin="round" stroke-width="2"/><line id="e0044lx9zeyybd45" x1="74.029" x2="67.217" y1="70.926" y2="77.738" fill="none" fill-rule="evenodd" stroke="#FFF" stroke-linejoin="round" stroke-width="2"/><line id="e0044lx9zeyybd46" x1="68.579" x2="61.691" y1="65.4" y2="72.288" fill="none" fill-rule="evenodd" stroke="#FFF" stroke-linejoin="round" stroke-width="2"/></g></g></g></g></g></g></svg>