<svg xmlns="http://www.w3.org/2000/svg" xmlns:xlink="http://www.w3.org/1999/xlink" width="88" height="88" version="1.1" viewBox="0 0 88 88"><title>docs_icon_padding</title><g id="Page-1" fill="none" fill-rule="evenodd" stroke="none" stroke-width="1"><g id="ar-hello-world-v3-git" transform="translate(-1065.000000, -736.000000)"><g id="docs_icon_padding" transform="translate(1065.000000, 736.000000)"><rect id="Rectangle" width="88" height="88" x="0" y="0"/><path id="Path" stroke="#FFF" stroke-linejoin="round" stroke-width="2" d="M20.528561,76.4699598 L20.528561,11.8814352 C20.528561,10.8634025 21.3832122,10.0150418 22.4087936,10.0150418 L52.4925145,10.0150418 L68.5029796,25.9076647 L68.5029796,76.4699598 C68.5029796,77.4879926 67.6483285,78.3363533 66.6227471,78.3363533 L22.4087936,78.3363533 C21.3832122,78.3363533 20.528561,77.4879926 20.528561,76.4699598 Z"/><polygon id="Path" stroke="#FFF" stroke-linejoin="round" stroke-width="2" points="52.493 25.908 68.503 25.908 52.493 10.015"/><line id="Path" x1="27.594" x2="61.438" y1="38.746" y2="38.746" stroke="#527FFF" stroke-linejoin="round" stroke-width="2"/><line id="Path" x1="27.594" x2="61.438" y1="48.022" y2="48.022" stroke="#527FFF" stroke-linejoin="round" stroke-width="2"/><line id="Path" x1="27.594" x2="61.438" y1="57.354" y2="57.354" stroke="#527FFF" stroke-linejoin="round" stroke-width="2"/><line id="Path" x1="27.594" x2="61.438" y1="66.686" y2="66.686" stroke="#527FFF" stroke-linejoin="round" stroke-width="2"/><line id="Path" x1="27.594" x2="46.795" y1="29.414" y2="29.414" stroke="#527FFF" stroke-linejoin="round" stroke-width="2"/></g></g></g></svg>