<svg xmlns="http://www.w3.org/2000/svg" xmlns:xlink="http://www.w3.org/1999/xlink" width="14" height="14" version="1.1" viewBox="0 0 14 14"><title>external_link_icon</title><defs><path id="path-1" d="M6,0 L6,2 L2,2 L2,12 L12,12 L12,8.05 L14,8.05 L14,13 C14,13.5522847 13.5522847,14 13,14 L13,14 L1,14 C0.44771525,14 0,13.5522847 0,13 L0,13 L0,1 C0,0.44771525 0.44771525,0 1,0 L1,0 L6,0 Z M14,0 L14,6 L12,6 L12,3.414 L5.70710678,9.70710678 L4.29289322,8.29289322 L10.584,2 L8,2 L8,0 L14,0 Z"/></defs><g id="Page-1" fill="none" fill-rule="evenodd" stroke="none" stroke-width="1"><g id="ar-hello-world-v3" transform="translate(-345.000000, -915.000000)"><g id="external_link_icon" transform="translate(345.000000, 915.000000)"><mask id="mask-2" fill="#fff"><use xlink:href="#path-1"/></mask><use id="Icon" fill="#527FFF" fill-rule="nonzero" xlink:href="#path-1"/></g></g></g></svg>