<svg xmlns="http://www.w3.org/2000/svg" xmlns:xlink="http://www.w3.org/1999/xlink" width="88" height="88" version="1.1" viewBox="0 0 88 88"><title>git_icon_padding</title><g id="Page-1" fill="none" fill-rule="evenodd" stroke="none" stroke-width="1"><g id="ar-hello-world-v3-git" transform="translate(-289.000000, -736.000000)"><g id="git_icon_padding" transform="translate(289.000000, 736.000000)"><rect id="Rectangle" width="88" height="88" x="0" y="0"/><path id="Rectangle" stroke="#527FFF" stroke-width="2" d="M39.3991251,18.9836489 L30.3011454,18.9836489 L39.3991251,18.9836489 L39.3991251,18.9836489 Z" transform="translate(34.850135, 18.983649) rotate(45.000000) translate(-34.850135, -18.983649)"/><line id="Rectangle" x1="57.37" x2="47.471" y1="36.42" y2="36.42" stroke="#527FFF" stroke-width="2" transform="translate(52.420310, 36.420310) rotate(45.000000) translate(-52.420310, -36.420310)"/><circle id="Oval" cx="44.134" cy="27.134" r="7.5" stroke="#527FFF" stroke-linejoin="round" stroke-width="2" transform="translate(44.133514, 27.133514) rotate(-180.000000) translate(-44.133514, -27.133514)"/><circle id="Oval" cx="61.134" cy="44.134" r="7.5" stroke="#527FFF" stroke-linejoin="round" stroke-width="2" transform="translate(61.133514, 44.133514) rotate(-180.000000) translate(-61.133514, -44.133514)"/><circle id="Oval-Copy" cx="44.134" cy="61.134" r="7.5" stroke="#527FFF" stroke-linejoin="round" stroke-width="2" transform="translate(44.133514, 61.133514) rotate(-180.000000) translate(-44.133514, -61.133514)"/><line id="Path-3" x1="44.134" x2="44.134" y1="33.634" y2="53.634" stroke="#527FFF" stroke-width="2"/><rect id="Rectangle" width="59" height="59" x="14.634" y="14.634" stroke="#FFF" stroke-width="2" rx="9" transform="translate(44.133514, 44.133514) rotate(45.000000) translate(-44.133514, -44.133514)"/></g></g></g></svg>